# xmcd CD database file
#
# Track frame offsets:
#	150
#	22000
#	41063
#	57288
#	69038
#	84800
#	107113
#	122600
#	138463
#	155788
#	174163
#	191225
#	206200
#	224350
#	243125
#	255788
#
# Disc length: 3583 seconds
#
# Revision: 0
# Processed by: cddbd v1.4PL0 Copyright (c) Steve Scherf et al.
# Submitted via: CDex 1.40Beta8
#
DISCID=da0dfd10
DTITLE=Various Artist - Country Female 16 of Todays Big Hits
DYEAR=1900
DGENRE=Country
TTITLE0=Come On Come On
TTITLE1=Does He Love You
TTITLE2=For My Broken Heart
TTITLE3=It's a Little Too Late
TTITLE4=Let that Pony Run
TTITLE5=Love Can Build A Bridge
TTITLE6=Passionate Kisses
TTITLE7=Romeo
TTITLE8=Rumor Has It
TTITLE9=Standing Knee Deep in a River
TTITLE10=Tell Me Why
TTITLE11=The Heart Won't Lie
TTITLE12=The Song Remembers When
TTITLE13=Two Sparrows in a Hurricane
TTITLE14=What Part of No
TTITLE15=Without You
EXTD=ID3G: 2
EXTT0=
EXTT1=
EXTT2=
EXTT3=
EXTT4=
EXTT5=
EXTT6=
EXTT7=
EXTT8=
EXTT9=
EXTT10=
EXTT11=
EXTT12=
EXTT13=
EXTT14=
EXTT15=
PLAYORDER=
